<svg version="1.1" xmlns="http://www.w3.org/2000/svg" viewBox="0 0 719 482.367918508475" width="719" height="482.367918508475">
  <!-- svg-source:excalidraw -->
  
  <defs>
    <style class="style-fonts">
      @font-face {
        font-family: "Virgil";
        src: url("https://excalidraw.com/Virgil.woff2");
      }
      @font-face {
        font-family: "Cascadia";
        src: url("https://excalidraw.com/Cascadia.woff2");
      }
    </style>
    
  </defs>
  <g transform="translate(270 28) rotate(0 -42 139)" stroke="none"><path fill="#1e1e1e" d="M -2.53,4.55 Q -2.53,4.55 -5.10,3.08 -7.66,1.61 -10.37,0.65 -13.09,-0.30 -15.55,-1.41 -18.02,-2.52 -21.53,-3.59 -25.04,-4.66 -29.23,-4.47 -33.41,-4.29 -36.86,-4.39 -40.31,-4.49 -43.37,-4.67 -46.44,-4.85 -48.61,-4.86 -50.79,-4.88 -53.21,-4.81 -55.63,-4.74 -58.51,-4.61 -61.39,-4.49 -65.94,-4.09 -70.49,-3.69 -73.74,-3.26 -77.00,-2.83 -81.23,-0.97 -85.47,0.88 -87.75,1.56 -90.03,2.24 -92.83,3.26 -95.63,4.27 -97.60,5.24 -99.57,6.21 -101.51,7.95 -103.44,9.69 -105.13,11.12 -106.81,12.54 -108.63,13.89 -110.44,15.24 -113.06,17.61 -115.68,19.98 -117.51,22.04 -119.33,24.10 -121.14,25.97 -122.94,27.84 -124.95,30.71 -126.95,33.57 -128.47,36.80 -129.99,40.02 -131.34,42.51 -132.69,44.99 -134.22,47.89 -135.74,50.79 -137.00,53.13 -138.27,55.47 -141.42,60.29 -144.58,65.10 -146.86,68.53 -149.14,71.97 -150.15,74.62 -151.16,77.27 -152.19,79.98 -153.22,82.69 -154.15,87.78 -155.09,92.86 -155.30,96.35 -155.50,99.84 -155.61,103.33 -155.71,106.83 -155.72,110.04 -155.73,113.25 -155.61,115.47 -155.49,117.70 -154.64,120.44 -153.79,123.19 -152.03,126.02 -150.28,128.85 -148.12,130.60 -145.97,132.35 -142.44,135.52 -138.92,138.68 -136.56,140.29 -134.19,141.90 -131.99,143.15 -129.79,144.40 -127.02,146.25 -124.25,148.10 -122.19,149.39 -120.13,150.67 -116.73,152.77 -113.32,154.87 -111.08,156.58 -108.84,158.29 -105.58,160.66 -102.33,163.03 -99.23,165.89 -96.14,168.75 -94.69,170.44 -93.24,172.13 -91.82,173.96 -90.40,175.80 -88.85,177.55 -87.29,179.30 -85.14,182.23 -82.99,185.16 -81.89,188.25 -80.79,191.34 -79.11,195.64 -77.44,199.94 -75.55,204.66 -73.66,209.39 -72.47,212.74 -71.28,216.10 -70.16,218.59 -69.04,221.08 -67.81,223.04 -66.58,225.01 -65.34,227.18 -64.11,229.36 -61.83,232.67 -59.55,235.98 -55.89,239.71 -52.23,243.43 -47.93,246.76 -43.64,250.09 -36.71,254.42 -29.78,258.74 -23.93,262.38 -18.08,266.02 -14.00,268.10 -9.92,270.19 -5.07,272.24 -0.22,274.28 2.88,274.95 6.00,275.63 11.14,277.23 16.29,278.84 21.32,280.40 26.36,281.96 30.95,282.90 35.54,283.83 38.37,284.01 41.19,284.19 43.68,284.46 46.17,284.74 50.08,285.02 53.99,285.30 59.16,285.49 64.33,285.67 67.40,285.56 70.48,285.45 73.25,285.31 76.03,285.17 76.64,285.27 77.25,285.38 77.79,285.68 78.34,285.97 78.76,286.42 79.18,286.88 79.44,287.44 79.69,288.01 79.75,288.62 79.81,289.24 79.68,289.84 79.54,290.44 79.21,290.97 78.89,291.50 78.41,291.90 77.94,292.29 77.36,292.52 76.78,292.74 76.16,292.77 75.55,292.80 74.95,292.62 74.36,292.45 73.85,292.10 73.34,291.75 72.97,291.25 72.60,290.76 72.41,290.17 72.21,289.58 72.22,288.96 72.22,288.34 72.43,287.76 72.63,287.17 73.01,286.68 73.39,286.19 73.91,285.85 74.42,285.51 75.02,285.35 75.62,285.19 76.24,285.23 76.85,285.27 77.43,285.50 78.00,285.74 78.47,286.14 78.93,286.55 79.25,287.08 79.56,287.61 79.69,288.22 79.82,288.82 79.74,289.44 79.67,290.05 79.41,290.61 79.14,291.17 78.71,291.62 78.28,292.06 77.73,292.35 77.18,292.63 76.57,292.73 75.96,292.82 75.96,292.82 75.96,292.82 73.18,292.63 70.40,292.43 67.31,292.25 64.22,292.07 58.95,292.10 53.67,292.12 49.24,292.01 44.81,291.91 42.55,291.27 40.30,290.63 37.38,290.02 34.45,289.42 29.57,288.49 24.69,287.57 19.62,286.12 14.56,284.67 9.46,283.24 4.36,281.81 0.96,280.75 -2.44,279.69 -7.52,277.67 -12.59,275.64 -16.98,273.56 -21.37,271.48 -27.33,268.02 -33.29,264.56 -40.62,260.31 -47.95,256.05 -52.86,252.72 -57.76,249.39 -62.22,245.55 -66.68,241.72 -69.99,238.07 -73.29,234.42 -74.36,232.39 -75.42,230.37 -76.91,227.85 -78.39,225.34 -79.60,222.71 -80.81,220.08 -82.39,216.80 -83.97,213.52 -85.28,210.67 -86.59,207.83 -88.12,203.78 -89.66,199.73 -91.40,195.56 -93.14,191.39 -94.48,189.23 -95.82,187.06 -97.73,185.00 -99.64,182.95 -100.97,181.23 -102.29,179.51 -104.65,176.86 -107.01,174.20 -109.40,171.92 -111.80,169.64 -113.60,168.31 -115.40,166.98 -117.39,165.49 -119.37,164.01 -122.59,161.74 -125.81,159.47 -127.78,158.15 -129.75,156.84 -132.40,155.27 -135.05,153.71 -137.49,152.34 -139.92,150.97 -143.05,149.11 -146.19,147.25 -148.74,145.25 -151.30,143.25 -153.24,141.44 -155.18,139.64 -156.86,137.49 -158.54,135.34 -160.07,132.43 -161.60,129.53 -162.50,127.51 -163.41,125.49 -163.94,121.59 -164.47,117.68 -164.33,115.44 -164.19,113.19 -164.15,109.94 -164.11,106.69 -164.10,103.11 -164.09,99.52 -164.03,95.81 -163.97,92.11 -163.66,87.77 -163.35,83.43 -162.49,81.39 -161.62,79.35 -160.51,76.69 -159.40,74.02 -158.09,70.79 -156.79,67.56 -154.97,63.91 -153.14,60.26 -150.71,55.18 -148.27,50.10 -147.21,48.10 -146.14,46.09 -144.88,42.84 -143.62,39.58 -141.62,35.24 -139.63,30.91 -138.70,28.96 -137.77,27.02 -136.46,24.86 -135.16,22.70 -133.74,20.90 -132.33,19.09 -129.62,15.91 -126.91,12.73 -124.45,10.39 -121.98,8.05 -120.24,6.45 -118.49,4.84 -115.93,2.80 -113.37,0.76 -111.69,-0.96 -110.02,-2.68 -107.66,-4.19 -105.29,-5.70 -102.89,-6.76 -100.48,-7.82 -97.19,-8.98 -93.90,-10.14 -90.59,-11.31 -87.28,-12.49 -84.77,-13.35 -82.27,-14.22 -79.14,-15.04 -76.02,-15.85 -71.91,-16.37 -67.81,-16.89 -64.60,-17.19 -61.39,-17.50 -58.50,-17.38 -55.62,-17.25 -53.19,-17.17 -50.76,-17.10 -48.58,-17.10 -46.40,-17.11 -43.28,-17.27 -40.15,-17.43 -36.92,-17.31 -33.68,-17.19 -31.19,-16.75 -28.69,-16.31 -25.27,-16.13 -21.84,-15.95 -19.08,-15.19 -16.33,-14.42 -13.78,-12.94 -11.24,-11.45 -9.07,-10.45 -6.91,-9.45 -4.79,-8.40 -2.68,-7.36 -0.07,-5.96 2.53,-4.55 3.04,-4.18 3.54,-3.81 3.95,-3.33 4.36,-2.85 4.63,-2.29 4.91,-1.73 5.05,-1.11 5.18,-0.50 5.17,0.12 5.15,0.75 4.99,1.35 4.82,1.96 4.52,2.51 4.21,3.06 3.79,3.52 3.36,3.98 2.83,4.32 2.31,4.67 1.71,4.88 1.12,5.09 0.50,5.15 -0.12,5.21 -0.74,5.12 -1.36,5.03 -1.95,4.79 -2.53,4.55 -2.53,4.55 L -2.53,4.55 Z"></path></g><g transform="translate(266 21) rotate(0 102 150.5)" stroke="none"><path fill="#1e1e1e" d="M 2.97,-1.62 Q 2.97,-1.62 4.73,1.51 6.50,4.66 8.56,7.93 10.62,11.20 12.49,14.42 14.36,17.63 16.12,19.78 17.89,21.92 41.27,31.52 64.66,41.12 93.58,47.67 122.50,54.22 139.67,60.29 156.84,66.35 164.69,69.52 172.53,72.70 176.51,74.67 180.48,76.64 182.63,77.57 184.77,78.50 187.70,81.01 190.63,83.53 192.83,87.92 195.03,92.32 196.99,95.71 198.95,99.11 200.55,102.08 202.15,105.05 203.49,107.75 204.82,110.45 205.79,112.47 206.76,114.49 207.35,116.54 207.94,118.59 208.35,123.25 208.76,127.91 208.83,130.52 208.90,133.13 208.92,135.97 208.94,138.80 208.97,141.45 209.00,144.09 208.73,146.93 208.46,149.78 207.56,153.61 206.66,157.44 205.24,161.48 203.82,165.52 201.62,170.43 199.42,175.33 197.64,178.70 195.87,182.06 193.93,185.05 191.99,188.04 188.32,191.91 184.64,195.79 181.70,199.01 178.75,202.23 176.05,205.33 173.36,208.42 171.15,211.22 168.94,214.01 166.79,216.30 164.64,218.59 162.30,220.75 159.95,222.91 157.93,224.94 155.92,226.97 153.54,229.08 151.16,231.19 148.46,233.64 145.76,236.09 143.42,238.17 141.08,240.25 138.96,242.06 136.83,243.87 133.72,246.76 130.60,249.65 128.85,251.32 127.11,253.00 125.08,254.73 123.05,256.46 119.51,260.19 115.96,263.92 114.13,265.83 112.29,267.73 110.80,269.55 109.32,271.36 108.19,274.97 107.06,278.58 106.85,281.27 106.64,283.97 106.76,287.74 106.87,291.51 106.96,293.64 107.06,295.77 105.87,299.92 104.68,304.07 100.76,305.66 96.83,307.26 93.68,307.16 90.53,307.05 88.37,307.06 86.21,307.07 83.61,307.11 81.02,307.16 80.03,307.01 79.05,306.85 78.16,306.38 77.28,305.92 76.59,305.20 75.90,304.48 75.48,303.57 75.06,302.67 74.95,301.68 74.83,300.68 75.05,299.71 75.26,298.73 75.77,297.88 76.28,297.02 77.04,296.37 77.80,295.72 78.72,295.35 79.65,294.98 80.64,294.92 81.64,294.86 82.60,295.12 83.56,295.39 84.39,295.94 85.22,296.50 85.83,297.29 86.43,298.09 86.76,299.03 87.08,299.97 87.08,300.97 87.09,301.97 86.77,302.92 86.46,303.86 85.85,304.66 85.25,305.46 84.43,306.02 83.61,306.58 82.64,306.85 81.68,307.13 80.69,307.07 79.69,307.02 78.76,306.66 77.83,306.29 77.07,305.65 76.31,305.01 75.79,304.15 75.27,303.30 75.05,302.32 74.84,301.35 74.94,300.36 75.05,299.37 75.46,298.46 75.88,297.55 76.56,296.82 77.24,296.10 78.12,295.63 79.00,295.16 79.99,294.99 80.97,294.83 80.97,294.83 80.97,294.83 83.54,294.85 86.12,294.88 88.24,294.85 90.37,294.82 92.66,295.28 94.94,295.74 95.05,293.59 95.15,291.44 95.30,288.30 95.45,285.15 95.80,282.72 96.16,280.30 96.59,278.06 97.02,275.82 97.91,272.80 98.80,269.77 100.17,267.32 101.54,264.87 103.36,262.79 105.17,260.71 107.03,258.87 108.90,257.03 111.09,254.64 113.29,252.26 115.01,250.52 116.74,248.78 118.62,247.30 120.51,245.81 122.58,243.99 124.65,242.17 128.05,239.64 131.45,237.11 133.59,235.53 135.73,233.95 138.01,232.12 140.28,230.29 143.03,227.58 145.78,224.88 148.10,222.99 150.41,221.09 152.68,219.10 154.95,217.12 157.28,215.24 159.61,213.37 161.70,211.57 163.80,209.78 166.14,207.04 168.49,204.29 171.12,201.10 173.74,197.91 176.54,194.48 179.34,191.04 182.43,187.37 185.51,183.69 187.30,181.09 189.10,178.49 190.69,175.47 192.27,172.46 193.93,167.75 195.59,163.05 196.49,159.37 197.39,155.68 197.88,152.17 198.37,148.65 198.67,146.38 198.97,144.10 199.00,141.47 199.02,138.84 199.02,136.04 199.01,133.23 199.03,130.68 199.05,128.13 199.05,124.24 199.05,120.34 198.35,117.00 197.64,113.66 196.59,111.02 195.53,108.38 194.22,105.57 192.91,102.75 190.73,99.29 188.55,95.83 186.41,92.22 184.27,88.61 182.87,86.44 181.48,84.26 179.74,83.01 178.00,81.75 174.19,79.94 170.37,78.13 162.61,75.10 154.84,72.08 137.97,66.26 121.11,60.44 91.59,53.92 62.08,47.40 37.27,37.05 12.46,26.71 10.41,23.88 8.35,21.04 6.65,17.95 4.95,14.86 2.67,11.42 0.39,7.98 -1.28,4.80 -2.97,1.62 -3.12,1.24 -3.27,0.86 -3.33,0.45 -3.38,0.05 -3.34,-0.35 -3.30,-0.75 -3.16,-1.14 -3.02,-1.52 -2.79,-1.86 -2.57,-2.20 -2.27,-2.48 -1.96,-2.75 -1.61,-2.95 -1.25,-3.14 -0.85,-3.25 -0.46,-3.35 -0.05,-3.36 0.35,-3.36 0.75,-3.27 1.15,-3.18 1.51,-3.00 1.88,-2.81 2.18,-2.55 2.49,-2.28 2.73,-1.95 2.97,-1.62 2.97,-1.62 L 2.97,-1.62 Z"></path></g><g transform="translate(393 232) rotate(0 -47 15)" stroke="none"><path fill="#1e1e1e" d="M 1.93,3.22 Q 1.93,3.22 -2.45,5.67 -6.84,8.13 -12.00,10.63 -17.16,13.13 -25.59,15.67 -34.03,18.20 -41.56,20.37 -49.08,22.54 -57.26,24.33 -65.44,26.11 -71.77,27.43 -78.09,28.74 -81.90,29.65 -85.70,30.56 -87.74,31.41 -89.78,32.26 -91.35,32.93 -92.93,33.61 -93.53,33.68 -94.13,33.76 -94.73,33.64 -95.33,33.52 -95.86,33.21 -96.39,32.91 -96.79,32.45 -97.19,31.99 -97.43,31.43 -97.66,30.87 -97.70,30.26 -97.75,29.65 -97.59,29.06 -97.44,28.47 -97.11,27.96 -96.77,27.45 -96.30,27.07 -95.82,26.70 -95.24,26.49 -94.67,26.29 -94.06,26.28 -93.45,26.27 -92.87,26.45 -92.29,26.64 -91.79,27.00 -91.30,27.36 -90.95,27.86 -90.60,28.36 -90.43,28.94 -90.26,29.52 -90.28,30.13 -90.30,30.74 -90.52,31.31 -90.73,31.88 -91.12,32.35 -91.51,32.83 -92.02,33.15 -92.54,33.47 -93.13,33.61 -93.73,33.75 -94.33,33.70 -94.94,33.64 -95.50,33.40 -96.06,33.15 -96.51,32.74 -96.96,32.33 -97.25,31.79 -97.55,31.26 -97.65,30.66 -97.76,30.06 -97.67,29.45 -97.59,28.85 -97.31,28.31 -97.03,27.77 -96.60,27.34 -96.16,26.91 -95.61,26.65 -95.06,26.38 -95.06,26.38 -95.06,26.38 -93.38,26.09 -91.69,25.80 -89.33,25.35 -86.97,24.90 -83.11,24.09 -79.26,23.28 -72.97,21.91 -66.69,20.54 -58.72,18.71 -50.75,16.89 -43.29,14.62 -35.83,12.35 -27.95,9.85 -20.07,7.36 -15.23,4.79 -10.40,2.21 -6.16,-0.50 -1.93,-3.22 -1.51,-3.40 -1.10,-3.59 -0.65,-3.67 -0.21,-3.75 0.23,-3.72 0.68,-3.69 1.12,-3.55 1.55,-3.42 1.93,-3.18 2.32,-2.94 2.64,-2.62 2.96,-2.30 3.19,-1.91 3.43,-1.53 3.56,-1.09 3.69,-0.66 3.72,-0.21 3.74,0.23 3.66,0.68 3.58,1.12 3.39,1.54 3.20,1.95 2.92,2.30 2.64,2.66 2.28,2.94 1.93,3.22 1.93,3.22 L 1.93,3.22 Z"></path></g><g transform="translate(401 190) rotate(0 -89.5 26)" stroke="none"><path fill="#1e1e1e" d="M 0.98,3.14 Q 0.98,3.14 -3.64,4.49 -8.27,5.85 -15.45,7.84 -22.63,9.83 -36.12,12.69 -49.61,15.55 -63.94,18.47 -78.27,21.39 -95.26,25.20 -112.24,29.01 -125.11,33.18 -137.97,37.35 -147.13,41.11 -156.29,44.86 -161.61,47.31 -166.93,49.76 -172.49,50.75 -178.05,51.73 -178.45,51.49 -178.86,51.25 -179.17,50.89 -179.49,50.54 -179.67,50.10 -179.85,49.66 -179.88,49.19 -179.91,48.71 -179.79,48.26 -179.67,47.80 -179.41,47.40 -179.15,47.01 -178.77,46.72 -178.40,46.42 -177.95,46.27 -177.51,46.11 -177.03,46.10 -176.56,46.10 -176.11,46.24 -175.66,46.39 -175.27,46.67 -174.89,46.95 -174.62,47.34 -174.35,47.73 -174.22,48.19 -174.09,48.64 -174.11,49.12 -174.13,49.59 -174.30,50.03 -174.47,50.47 -174.77,50.84 -175.07,51.20 -175.47,51.45 -175.88,51.70 -176.34,51.81 -176.80,51.92 -177.27,51.87 -177.74,51.83 -178.18,51.63 -178.61,51.44 -178.96,51.12 -179.31,50.80 -179.53,50.38 -179.76,49.96 -179.84,49.50 -179.92,49.03 -179.85,48.56 -179.78,48.09 -179.57,47.67 -179.35,47.25 -179.01,46.92 -178.67,46.59 -178.24,46.39 -177.81,46.18 -177.34,46.12 -176.87,46.07 -176.41,46.16 -175.94,46.26 -175.94,46.26 -175.94,46.26 -172.56,45.58 -169.18,44.90 -163.76,42.38 -158.34,39.87 -149.00,36.02 -139.65,32.16 -126.56,27.89 -113.46,23.62 -96.44,19.75 -79.41,15.88 -65.12,12.89 -50.82,9.91 -37.55,7.01 -24.28,4.10 -17.20,2.00 -10.12,-0.10 -5.55,-1.62 -0.98,-3.14 -0.59,-3.22 -0.20,-3.29 0.19,-3.27 0.59,-3.24 0.97,-3.12 1.35,-3.01 1.69,-2.80 2.03,-2.59 2.31,-2.31 2.59,-2.03 2.80,-1.69 3.00,-1.35 3.12,-0.97 3.24,-0.59 3.26,-0.20 3.29,0.19 3.22,0.58 3.15,0.97 2.98,1.34 2.82,1.70 2.58,2.01 2.33,2.33 2.02,2.57 1.70,2.82 1.34,2.98 0.98,3.14 0.98,3.14 L 0.98,3.14 Z"></path></g><g transform="translate(226 187) rotate(0 68.5 -18)" stroke="none"><path fill="#1e1e1e" d="M -1.46,-3.37 Q -1.46,-3.37 5.20,-6.12 11.86,-8.86 22.14,-13.70 32.41,-18.54 45.04,-22.66 57.68,-26.79 69.21,-28.82 80.75,-30.86 93.13,-32.27 105.50,-33.69 112.20,-34.27 118.90,-34.86 123.63,-35.66 128.37,-36.46 130.52,-37.31 132.67,-38.16 134.35,-38.84 136.03,-39.52 136.62,-39.58 137.21,-39.64 137.78,-39.51 138.36,-39.38 138.86,-39.08 139.37,-38.77 139.75,-38.32 140.13,-37.87 140.35,-37.32 140.56,-36.77 140.59,-36.18 140.62,-35.59 140.46,-35.02 140.30,-34.45 139.97,-33.96 139.64,-33.47 139.17,-33.12 138.69,-32.76 138.13,-32.58 137.57,-32.39 136.98,-32.39 136.39,-32.39 135.83,-32.58 135.27,-32.78 134.80,-33.13 134.34,-33.49 134.01,-33.98 133.68,-34.47 133.52,-35.04 133.36,-35.61 133.40,-36.20 133.43,-36.79 133.65,-37.34 133.87,-37.89 134.26,-38.34 134.64,-38.79 135.15,-39.09 135.66,-39.39 136.23,-39.52 136.81,-39.64 137.40,-39.58 137.98,-39.51 138.52,-39.26 139.06,-39.01 139.48,-38.60 139.91,-38.19 140.18,-37.67 140.46,-37.15 140.55,-36.56 140.65,-35.98 140.55,-35.40 140.45,-34.82 140.17,-34.30 139.89,-33.77 139.46,-33.37 139.03,-32.97 138.50,-32.72 137.96,-32.47 137.96,-32.47 137.96,-32.47 136.17,-32.20 134.38,-31.93 131.84,-31.50 129.30,-31.06 124.36,-30.19 119.41,-29.32 112.79,-28.68 106.17,-28.04 93.98,-26.57 81.78,-25.10 70.68,-23.06 59.58,-21.02 47.38,-16.91 35.17,-12.79 24.87,-7.71 14.58,-2.63 8.02,0.37 1.46,3.37 1.04,3.50 0.61,3.63 0.17,3.65 -0.26,3.67 -0.70,3.58 -1.14,3.50 -1.54,3.31 -1.94,3.12 -2.29,2.84 -2.63,2.57 -2.90,2.21 -3.17,1.86 -3.35,1.45 -3.53,1.05 -3.60,0.61 -3.67,0.17 -3.64,-0.26 -3.61,-0.71 -3.47,-1.13 -3.33,-1.55 -3.10,-1.93 -2.87,-2.30 -2.55,-2.61 -2.23,-2.92 -1.85,-3.15 -1.46,-3.37 -1.46,-3.37 L -1.46,-3.37 Z"></path></g><g transform="translate(190 143) rotate(0 96.5 -16.5)" stroke="none"><path fill="#1e1e1e" d="M -1.22,-3.05 Q -1.22,-3.05 4.56,-5.27 10.34,-7.48 27.33,-12.19 44.33,-16.89 64.22,-21.17 84.12,-25.45 106.16,-28.41 128.20,-31.38 145.08,-32.63 161.96,-33.88 170.85,-34.40 179.73,-34.92 186.28,-35.30 192.83,-35.69 193.27,-35.64 193.70,-35.60 194.10,-35.42 194.49,-35.24 194.81,-34.94 195.13,-34.64 195.34,-34.26 195.55,-33.87 195.62,-33.44 195.69,-33.01 195.62,-32.58 195.56,-32.15 195.36,-31.76 195.15,-31.38 194.84,-31.07 194.52,-30.77 194.13,-30.59 193.73,-30.40 193.30,-30.35 192.87,-30.30 192.44,-30.39 192.01,-30.48 191.64,-30.71 191.26,-30.93 190.98,-31.26 190.69,-31.59 190.53,-31.99 190.36,-32.40 190.34,-32.83 190.31,-33.27 190.43,-33.69 190.54,-34.11 190.78,-34.48 191.02,-34.84 191.37,-35.10 191.72,-35.37 192.13,-35.51 192.54,-35.65 192.98,-35.66 193.41,-35.66 193.83,-35.52 194.24,-35.39 194.59,-35.12 194.94,-34.86 195.19,-34.50 195.44,-34.14 195.56,-33.72 195.68,-33.30 195.65,-32.87 195.63,-32.43 195.47,-32.03 195.32,-31.62 195.03,-31.28 194.75,-30.95 194.38,-30.72 194.01,-30.50 193.58,-30.40 193.16,-30.30 193.16,-30.30 193.16,-30.30 186.61,-29.89 180.06,-29.48 171.22,-28.92 162.38,-28.37 145.67,-27.09 128.96,-25.80 107.15,-22.81 85.34,-19.82 65.64,-15.49 45.94,-11.16 29.29,-6.43 12.65,-1.71 6.93,0.67 1.22,3.05 0.83,3.15 0.45,3.26 0.05,3.26 -0.33,3.27 -0.72,3.18 -1.11,3.09 -1.46,2.92 -1.82,2.74 -2.12,2.48 -2.42,2.22 -2.65,1.90 -2.88,1.58 -3.03,1.21 -3.18,0.84 -3.23,0.45 -3.29,0.05 -3.25,-0.33 -3.21,-0.73 -3.07,-1.10 -2.94,-1.47 -2.72,-1.80 -2.50,-2.13 -2.21,-2.40 -1.91,-2.67 -1.57,-2.86 -1.22,-3.05 -1.22,-3.05 L -1.22,-3.05 Z"></path></g><g transform="translate(172 101) rotate(0 76 -12)" stroke="none"><path fill="#1e1e1e" d="M -1.00,-3.13 Q -1.00,-3.13 6.21,-5.35 13.42,-7.56 24.13,-9.66 34.84,-11.77 48.04,-13.51 61.24,-15.24 80.07,-17.40 98.89,-19.55 112.03,-21.32 125.17,-23.08 132.77,-24.11 140.38,-25.14 146.00,-25.91 151.63,-26.67 152.06,-26.66 152.50,-26.65 152.91,-26.50 153.32,-26.35 153.66,-26.07 154.00,-25.80 154.24,-25.43 154.47,-25.07 154.58,-24.64 154.68,-24.22 154.65,-23.78 154.61,-23.35 154.44,-22.95 154.27,-22.55 153.98,-22.22 153.69,-21.90 153.31,-21.68 152.93,-21.46 152.50,-21.38 152.07,-21.30 151.64,-21.36 151.21,-21.41 150.82,-21.61 150.42,-21.80 150.12,-22.11 149.81,-22.42 149.61,-22.81 149.42,-23.20 149.36,-23.63 149.30,-24.06 149.38,-24.49 149.46,-24.92 149.68,-25.30 149.89,-25.68 150.21,-25.97 150.54,-26.27 150.94,-26.44 151.34,-26.61 151.78,-26.65 152.21,-26.68 152.63,-26.58 153.06,-26.47 153.43,-26.24 153.79,-26.01 154.07,-25.67 154.34,-25.33 154.49,-24.92 154.64,-24.51 154.66,-24.07 154.67,-23.63 154.54,-23.22 154.41,-22.80 154.16,-22.44 153.91,-22.09 153.55,-21.83 153.20,-21.58 152.78,-21.45 152.36,-21.32 152.36,-21.32 152.36,-21.32 146.74,-20.53 141.12,-19.74 133.52,-18.68 125.91,-17.61 112.73,-15.79 99.54,-13.97 80.78,-11.75 62.01,-9.53 49.02,-7.73 36.02,-5.93 25.67,-3.78 15.32,-1.63 8.16,0.75 1.00,3.13 0.61,3.21 0.22,3.28 -0.17,3.26 -0.56,3.24 -0.94,3.12 -1.32,3.01 -1.66,2.81 -2.01,2.60 -2.29,2.32 -2.57,2.05 -2.78,1.71 -2.99,1.37 -3.11,0.99 -3.23,0.61 -3.26,0.22 -3.28,-0.17 -3.21,-0.56 -3.15,-0.95 -2.99,-1.31 -2.83,-1.68 -2.58,-1.99 -2.34,-2.31 -2.03,-2.55 -1.72,-2.80 -1.36,-2.97 -1.00,-3.13 -1.00,-3.13 L -1.00,-3.13 Z"></path></g><g transform="translate(459 107) rotate(0 76 80)" stroke="none"><path fill="#1e1e1e" d="M 0.41,-4.98 Q 0.41,-4.98 3.85,-4.59 7.29,-4.19 9.82,-4.12 12.36,-4.05 14.53,-4.07 16.71,-4.09 19.79,-5.20 22.87,-6.31 26.07,-8.48 29.27,-10.65 31.19,-12.04 33.10,-13.43 35.00,-14.85 36.91,-16.26 38.85,-17.71 40.79,-19.16 42.72,-21.46 44.66,-23.76 47.25,-26.65 49.84,-29.54 57.92,-36.34 65.99,-43.14 81.80,-55.40 97.62,-67.66 107.91,-74.31 118.20,-80.97 124.36,-84.35 130.53,-87.73 134.70,-89.48 138.88,-91.22 142.24,-92.85 145.60,-94.48 149.18,-95.84 152.77,-97.21 157.38,-98.01 162.00,-98.82 166.30,-99.15 170.61,-99.48 175.04,-99.58 179.47,-99.68 183.06,-99.85 186.66,-100.02 189.63,-100.21 192.59,-100.41 195.29,-100.58 198.00,-100.75 201.34,-100.69 204.69,-100.63 207.04,-99.59 209.39,-98.54 211.57,-97.22 213.76,-95.90 217.35,-93.08 220.93,-90.26 223.22,-88.60 225.51,-86.94 228.80,-84.11 232.08,-81.29 234.66,-78.07 237.24,-74.84 239.36,-71.11 241.48,-67.37 242.33,-64.70 243.18,-62.03 245.10,-58.02 247.03,-54.01 248.16,-50.15 249.29,-46.30 249.95,-42.33 250.61,-38.36 250.78,-34.99 250.95,-31.61 251.06,-28.58 251.17,-25.55 251.77,-21.81 252.37,-18.06 252.58,-14.72 252.79,-11.38 252.82,-9.25 252.85,-7.12 252.71,-3.91 252.58,-0.69 251.92,2.42 251.26,5.53 250.25,9.36 249.24,13.20 247.97,15.79 246.71,18.38 245.61,20.33 244.52,22.27 243.22,24.61 241.92,26.95 240.01,29.83 238.10,32.70 235.66,35.70 233.22,38.69 231.46,41.23 229.70,43.76 228.05,46.11 226.40,48.46 223.72,51.29 221.03,54.11 218.45,56.68 215.87,59.25 214.49,61.30 213.11,63.35 211.59,65.51 210.08,67.67 208.32,70.57 206.55,73.47 205.29,76.14 204.02,78.81 202.53,81.38 201.04,83.94 199.47,87.63 197.89,91.31 197.37,94.61 196.84,97.91 196.39,100.25 195.94,102.59 195.46,106.55 194.98,110.51 194.92,113.50 194.85,116.49 194.90,119.90 194.94,123.30 194.93,125.51 194.92,127.72 194.90,130.10 194.88,132.47 195.34,135.78 195.81,139.10 196.30,143.21 196.79,147.31 197.52,150.63 198.24,153.95 198.66,157.35 199.08,160.75 199.62,164.40 200.17,168.04 200.17,170.65 200.18,173.26 200.24,176.75 200.30,180.25 200.31,183.88 200.33,187.50 200.39,189.92 200.46,192.33 200.38,194.83 200.31,197.32 199.97,199.93 199.62,202.54 199.17,204.63 198.71,206.72 197.75,210.33 196.78,213.93 195.72,216.04 194.65,218.15 193.65,220.55 192.65,222.96 190.99,225.49 189.34,228.03 186.83,230.55 184.32,233.08 182.54,234.83 180.76,236.59 177.77,238.51 174.77,240.43 170.23,242.59 165.68,244.75 162.00,246.47 158.32,248.18 154.90,249.59 151.47,250.99 148.12,251.96 144.77,252.92 141.13,254.73 137.49,256.54 134.68,257.24 131.86,257.94 127.81,258.53 123.75,259.13 121.40,259.60 119.04,260.08 116.72,260.58 114.40,261.08 109.64,261.52 104.89,261.96 101.80,262.17 98.71,262.38 95.75,262.51 92.79,262.64 88.85,262.71 84.91,262.78 82.51,262.49 80.10,262.20 76.55,261.28 72.99,260.36 70.36,260.05 67.73,259.74 63.99,258.83 60.24,257.93 56.83,257.23 53.41,256.53 50.23,255.64 47.05,254.76 44.87,254.19 42.70,253.63 39.35,252.72 36.01,251.82 32.93,250.95 29.85,250.09 25.88,248.81 21.90,247.54 19.32,246.56 16.75,245.57 14.68,244.96 12.62,244.34 9.83,243.64 7.03,242.94 4.08,242.29 1.14,241.65 -1.14,241.11 -3.44,240.58 -5.73,240.04 -8.01,239.50 -10.14,238.99 -12.27,238.48 -14.75,237.95 -17.22,237.42 -19.77,236.89 -22.33,236.35 -25.89,235.79 -29.45,235.24 -31.86,235.25 -34.27,235.25 -37.67,234.95 -41.07,234.66 -45.43,234.15 -49.79,233.64 -52.56,233.51 -55.32,233.39 -57.56,233.45 -59.79,233.51 -64.19,232.71 -68.59,231.91 -72.11,231.68 -75.64,231.45 -77.74,231.09 -79.83,230.73 -82.69,230.60 -85.54,230.47 -87.96,230.52 -90.38,230.57 -93.39,230.02 -96.39,229.47 -97.39,229.08 -98.39,228.69 -99.21,227.99 -100.03,227.30 -100.58,226.39 -101.14,225.47 -101.37,224.43 -101.61,223.38 -101.50,222.32 -101.38,221.25 -100.94,220.28 -100.49,219.30 -99.76,218.52 -99.03,217.74 -98.08,217.23 -97.14,216.73 -96.08,216.55 -95.02,216.37 -93.96,216.54 -92.91,216.71 -91.96,217.21 -91.01,217.71 -90.27,218.48 -89.53,219.26 -89.07,220.23 -88.62,221.20 -88.50,222.26 -88.38,223.33 -88.61,224.37 -88.83,225.42 -89.38,226.34 -89.93,227.26 -90.74,227.96 -91.56,228.66 -92.55,229.06 -93.54,229.46 -94.61,229.52 -95.68,229.58 -96.72,229.30 -97.75,229.02 -98.64,228.42 -99.53,227.82 -100.18,226.97 -100.83,226.12 -101.18,225.11 -101.53,224.09 -101.53,223.02 -101.54,221.95 -101.20,220.93 -100.86,219.92 -100.21,219.06 -99.57,218.20 -98.68,217.60 -97.80,216.99 -96.77,216.70 -95.74,216.41 -94.67,216.47 -93.60,216.52 -93.60,216.52 -93.60,216.52 -90.78,217.01 -87.96,217.49 -85.21,217.68 -82.45,217.88 -79.91,218.04 -77.38,218.20 -74.34,218.57 -71.30,218.93 -68.85,219.11 -66.40,219.29 -63.97,219.65 -61.53,220.01 -59.04,220.33 -56.54,220.65 -54.20,220.82 -51.87,220.98 -48.03,221.45 -44.20,221.93 -41.40,222.06 -38.61,222.19 -36.31,222.48 -34.00,222.77 -31.31,223.05 -28.62,223.33 -26.55,223.95 -24.48,224.56 -22.30,224.84 -20.12,225.13 -17.58,225.59 -15.03,226.05 -12.27,226.53 -9.50,227.01 -7.43,227.52 -5.36,228.03 -3.17,228.53 -0.98,229.02 1.84,229.58 4.68,230.14 8.19,231.20 11.71,232.26 13.81,232.96 15.90,233.66 18.26,234.41 20.61,235.15 23.02,236.02 25.43,236.88 27.92,237.67 30.40,238.47 32.48,239.22 34.57,239.97 37.47,241.09 40.38,242.21 42.95,243.23 45.53,244.25 47.57,244.96 49.60,245.67 52.29,246.43 54.97,247.19 58.58,247.67 62.19,248.14 65.50,248.63 68.82,249.12 71.99,249.41 75.15,249.69 80.04,250.45 84.93,251.20 88.85,251.27 92.77,251.34 95.67,251.45 98.57,251.57 101.57,251.68 104.57,251.80 108.62,251.71 112.68,251.62 115.15,251.25 117.62,250.88 119.79,250.65 121.95,250.43 125.81,249.38 129.68,248.34 133.70,247.40 137.72,246.46 140.04,245.47 142.36,244.49 145.20,243.71 148.03,242.93 151.04,241.58 154.05,240.23 157.40,238.18 160.74,236.12 164.61,233.46 168.48,230.81 170.40,229.51 172.32,228.22 173.99,226.46 175.66,224.71 177.20,223.04 178.74,221.37 180.39,218.36 182.05,215.34 183.34,212.98 184.64,210.62 185.56,207.28 186.49,203.94 187.08,200.62 187.68,197.31 187.60,194.82 187.53,192.34 187.59,189.93 187.65,187.51 187.66,183.92 187.66,180.32 187.66,176.93 187.65,173.54 187.51,170.13 187.38,166.72 187.00,163.02 186.63,159.32 186.09,156.10 185.54,152.89 185.04,148.61 184.55,144.34 184.13,140.73 183.71,137.12 183.41,134.80 183.12,132.48 183.10,130.09 183.09,127.69 183.13,123.58 183.18,119.46 183.38,115.76 183.58,112.05 184.24,108.67 184.89,105.30 185.19,102.87 185.48,100.45 185.99,98.08 186.51,95.71 187.04,93.50 187.56,91.29 188.25,89.12 188.93,86.95 189.95,85.05 190.98,83.16 192.09,81.14 193.19,79.13 194.56,77.03 195.94,74.92 197.36,72.00 198.79,69.07 200.64,65.58 202.50,62.09 204.09,60.04 205.68,57.99 207.54,55.55 209.40,53.10 211.75,50.50 214.10,47.91 216.24,45.34 218.38,42.77 219.97,40.55 221.56,38.33 223.36,35.52 225.16,32.70 227.04,29.89 228.92,27.07 230.42,24.39 231.92,21.70 234.20,17.47 236.48,13.24 237.91,9.95 239.34,6.65 240.37,2.95 241.40,-0.73 241.25,-3.90 241.11,-7.06 241.14,-10.60 241.17,-14.14 241.12,-17.16 241.06,-20.17 240.71,-22.57 240.37,-24.97 240.17,-27.71 239.98,-30.45 239.34,-35.46 238.70,-40.46 238.23,-43.57 237.75,-46.68 236.60,-50.11 235.45,-53.54 234.09,-56.18 232.73,-58.82 231.38,-62.59 230.04,-66.36 228.61,-69.13 227.19,-71.90 225.76,-73.62 224.34,-75.35 222.23,-77.66 220.12,-79.97 218.12,-81.63 216.12,-83.29 212.30,-85.58 208.48,-87.88 205.38,-90.04 202.29,-92.20 200.16,-92.70 198.03,-93.20 195.34,-93.35 192.66,-93.50 189.71,-93.64 186.77,-93.79 183.21,-93.83 179.66,-93.87 175.39,-93.68 171.11,-93.48 167.13,-93.11 163.14,-92.75 159.06,-91.91 154.97,-91.07 151.62,-89.92 148.27,-88.77 144.79,-87.20 141.31,-85.63 137.50,-83.89 133.69,-82.16 127.84,-78.71 121.98,-75.26 112.10,-68.55 102.23,-61.83 86.83,-49.40 71.43,-36.97 64.23,-30.32 57.03,-23.68 54.81,-20.63 52.59,-17.58 49.97,-14.04 47.35,-10.49 45.33,-9.00 43.31,-7.51 41.31,-6.07 39.31,-4.62 37.45,-3.35 35.59,-2.08 32.82,-0.01 30.05,2.05 26.11,3.43 22.18,4.80 19.39,5.37 16.59,5.93 14.24,5.81 11.90,5.69 9.20,5.51 6.50,5.34 3.04,5.16 -0.41,4.98 -1.00,4.86 -1.59,4.74 -2.14,4.48 -2.68,4.22 -3.15,3.84 -3.61,3.45 -3.98,2.97 -4.34,2.49 -4.57,1.93 -4.81,1.38 -4.90,0.78 -5.00,0.18 -4.95,-0.41 -4.90,-1.01 -4.70,-1.58 -4.51,-2.15 -4.19,-2.66 -3.86,-3.17 -3.43,-3.59 -2.99,-4.00 -2.47,-4.31 -1.94,-4.61 -1.36,-4.77 -0.78,-4.94 -0.18,-4.96 0.41,-4.98 0.41,-4.98 L 0.41,-4.98 Z"></path></g><g transform="translate(409 282) rotate(0 46.5 25.5)" stroke="none"><path fill="#1e1e1e" d="M 2.07,-2.56 Q 2.07,-2.56 8.05,2.39 14.03,7.35 19.94,11.73 25.85,16.11 33.73,20.81 41.61,25.51 47.83,28.97 54.06,32.43 59.83,35.33 65.60,38.23 71.16,40.60 76.72,42.96 81.58,44.52 86.44,46.08 90.15,47.18 93.86,48.28 94.27,48.49 94.68,48.70 95.01,49.03 95.33,49.36 95.53,49.77 95.73,50.19 95.79,50.64 95.84,51.10 95.75,51.55 95.66,52.01 95.43,52.41 95.20,52.80 94.85,53.11 94.50,53.41 94.08,53.59 93.65,53.77 93.19,53.80 92.73,53.83 92.29,53.72 91.84,53.60 91.45,53.35 91.07,53.10 90.78,52.73 90.50,52.37 90.34,51.94 90.19,51.50 90.18,51.04 90.17,50.58 90.31,50.14 90.45,49.70 90.73,49.33 91.00,48.96 91.38,48.69 91.76,48.43 92.20,48.30 92.64,48.17 93.10,48.18 93.56,48.20 93.99,48.36 94.42,48.53 94.78,48.82 95.14,49.11 95.38,49.51 95.63,49.90 95.73,50.35 95.84,50.79 95.80,51.25 95.75,51.71 95.57,52.13 95.38,52.56 95.07,52.90 94.76,53.24 94.35,53.46 93.95,53.68 93.50,53.76 93.04,53.85 92.59,53.78 92.13,53.71 92.13,53.71 92.13,53.71 88.47,52.46 84.81,51.22 79.70,49.60 74.60,47.98 68.87,45.58 63.14,43.18 57.25,40.27 51.35,37.36 45.01,33.92 38.67,30.48 30.51,25.71 22.35,20.93 16.23,16.56 10.11,12.19 4.02,7.37 -2.07,2.56 -2.34,2.27 -2.62,1.98 -2.82,1.64 -3.02,1.30 -3.13,0.92 -3.24,0.54 -3.26,0.14 -3.28,-0.25 -3.20,-0.64 -3.12,-1.03 -2.96,-1.38 -2.79,-1.74 -2.54,-2.05 -2.29,-2.36 -1.97,-2.60 -1.65,-2.84 -1.29,-3.00 -0.92,-3.16 -0.53,-3.22 -0.14,-3.29 0.24,-3.26 0.64,-3.23 1.02,-3.10 1.40,-2.98 1.73,-2.77 2.07,-2.56 2.07,-2.56 L 2.07,-2.56 Z"></path></g><g transform="translate(461 254) rotate(0 48.5 27)" stroke="none"><path fill="#1e1e1e" d="M 2.49,-2.80 Q 2.49,-2.80 5.09,-0.52 7.69,1.74 12.18,4.67 16.68,7.60 23.93,10.88 31.18,14.16 42.75,19.97 54.32,25.79 62.68,30.31 71.04,34.82 77.16,38.19 83.29,41.56 87.40,44.20 91.51,46.84 93.70,48.05 95.88,49.26 97.48,50.10 99.09,50.95 99.52,51.36 99.95,51.77 100.23,52.30 100.50,52.83 100.60,53.42 100.69,54.02 100.59,54.60 100.49,55.19 100.21,55.72 99.92,56.25 99.49,56.66 99.05,57.06 98.51,57.31 97.96,57.56 97.37,57.62 96.77,57.68 96.19,57.55 95.61,57.42 95.10,57.11 94.59,56.80 94.20,56.34 93.82,55.88 93.60,55.33 93.38,54.77 93.35,54.17 93.32,53.58 93.49,53.00 93.65,52.42 93.99,51.93 94.33,51.44 94.80,51.08 95.28,50.72 95.85,50.53 96.42,50.35 97.02,50.35 97.61,50.35 98.18,50.55 98.74,50.74 99.22,51.10 99.69,51.47 100.02,51.97 100.36,52.46 100.51,53.04 100.67,53.62 100.63,54.21 100.60,54.81 100.37,55.36 100.15,55.92 99.76,56.37 99.37,56.82 98.86,57.13 98.34,57.44 97.76,57.56 97.17,57.69 96.58,57.62 95.99,57.55 95.45,57.30 94.90,57.04 94.90,57.04 94.90,57.04 93.54,55.85 92.17,54.66 90.34,53.12 88.51,51.57 84.54,49.09 80.56,46.60 74.41,43.33 68.26,40.05 59.92,35.68 51.58,31.32 40.08,25.72 28.58,20.13 20.80,16.84 13.01,13.55 7.83,10.50 2.65,7.45 0.07,5.12 -2.49,2.80 -2.79,2.46 -3.09,2.12 -3.30,1.72 -3.51,1.32 -3.61,0.88 -3.72,0.44 -3.72,-0.00 -3.72,-0.45 -3.61,-0.89 -3.50,-1.33 -3.29,-1.73 -3.08,-2.13 -2.78,-2.47 -2.48,-2.81 -2.11,-3.07 -1.73,-3.32 -1.31,-3.48 -0.89,-3.64 -0.44,-3.69 0.00,-3.75 0.45,-3.69 0.90,-3.64 1.32,-3.48 1.75,-3.32 2.12,-3.06 2.49,-2.80 2.49,-2.80 L 2.49,-2.80 Z"></path></g><g transform="translate(497 211) rotate(0 45.5 20.5)" stroke="none"><path fill="#1e1e1e" d="M 1.34,-3.58 Q 1.34,-3.58 5.88,-1.70 10.43,0.16 16.94,2.73 23.45,5.30 30.01,8.18 36.56,11.05 43.38,14.32 50.21,17.60 58.00,21.60 65.80,25.60 72.49,28.72 79.18,31.85 82.45,33.37 85.71,34.90 87.73,35.67 89.74,36.44 91.25,36.99 92.75,37.54 93.26,37.91 93.76,38.28 94.12,38.79 94.48,39.30 94.66,39.90 94.84,40.51 94.82,41.13 94.80,41.76 94.58,42.35 94.35,42.93 93.96,43.42 93.56,43.90 93.03,44.24 92.50,44.57 91.89,44.72 91.28,44.86 90.65,44.81 90.03,44.75 89.45,44.50 88.88,44.24 88.41,43.82 87.95,43.40 87.65,42.85 87.34,42.30 87.23,41.68 87.12,41.07 87.21,40.44 87.30,39.82 87.58,39.26 87.87,38.70 88.31,38.26 88.76,37.82 89.33,37.55 89.89,37.28 90.51,37.20 91.13,37.12 91.75,37.24 92.37,37.37 92.91,37.68 93.45,37.99 93.87,38.46 94.28,38.94 94.52,39.51 94.77,40.09 94.81,40.72 94.86,41.34 94.70,41.95 94.54,42.56 94.20,43.09 93.86,43.61 93.37,44.00 92.87,44.39 92.28,44.60 91.69,44.81 91.06,44.82 90.44,44.83 89.84,44.64 89.24,44.45 89.24,44.45 89.24,44.45 87.91,43.57 86.58,42.68 84.76,41.51 82.94,40.33 79.89,38.64 76.84,36.94 70.02,33.83 63.20,30.73 55.44,26.85 47.69,22.96 40.92,19.86 34.14,16.75 27.65,14.08 21.16,11.42 14.56,9.07 7.96,6.73 3.31,5.15 -1.34,3.58 -1.75,3.36 -2.16,3.15 -2.50,2.85 -2.85,2.54 -3.11,2.16 -3.38,1.79 -3.54,1.35 -3.71,0.92 -3.76,0.47 -3.82,0.01 -3.77,-0.44 -3.71,-0.90 -3.55,-1.33 -3.39,-1.76 -3.13,-2.14 -2.87,-2.52 -2.52,-2.83 -2.18,-3.14 -1.77,-3.35 -1.36,-3.57 -0.92,-3.68 -0.47,-3.79 -0.01,-3.79 0.44,-3.79 0.89,-3.69 1.34,-3.58 1.34,-3.58 L 1.34,-3.58 Z"></path></g><g transform="translate(516 154) rotate(0 51.5 16.5)" stroke="none"><path fill="#1e1e1e" d="M 1.10,-3.10 Q 1.10,-3.10 5.10,-1.57 9.09,-0.05 15.88,2.03 22.67,4.11 31.06,6.76 39.45,9.40 49.85,12.25 60.26,15.10 71.65,18.64 83.04,22.18 89.10,24.58 95.16,26.98 99.57,28.73 103.98,30.48 104.36,30.71 104.73,30.93 105.02,31.26 105.30,31.59 105.46,32.00 105.63,32.40 105.65,32.84 105.68,33.28 105.56,33.70 105.45,34.12 105.20,34.48 104.96,34.84 104.61,35.11 104.27,35.37 103.86,35.51 103.44,35.66 103.01,35.66 102.57,35.66 102.16,35.52 101.74,35.38 101.39,35.12 101.04,34.86 100.80,34.50 100.55,34.14 100.43,33.72 100.31,33.30 100.34,32.86 100.36,32.43 100.52,32.02 100.68,31.61 100.96,31.28 101.24,30.95 101.61,30.72 101.99,30.49 102.41,30.40 102.84,30.30 103.27,30.35 103.71,30.39 104.10,30.57 104.50,30.76 104.82,31.05 105.14,31.35 105.34,31.74 105.55,32.12 105.62,32.55 105.69,32.98 105.62,33.42 105.55,33.85 105.35,34.23 105.15,34.62 104.83,34.92 104.52,35.22 104.12,35.41 103.73,35.59 103.29,35.64 102.86,35.69 102.43,35.60 102.01,35.51 102.01,35.51 102.01,35.51 97.59,33.78 93.17,32.06 87.29,29.76 81.41,27.46 70.10,23.99 58.79,20.53 48.27,17.72 37.74,14.91 29.35,12.37 20.97,9.82 13.98,7.81 7.00,5.80 2.94,4.45 -1.10,3.10 -1.46,2.92 -1.81,2.74 -2.11,2.48 -2.42,2.23 -2.65,1.90 -2.88,1.58 -3.03,1.21 -3.18,0.85 -3.23,0.45 -3.29,0.06 -3.25,-0.33 -3.21,-0.72 -3.07,-1.09 -2.94,-1.47 -2.72,-1.80 -2.50,-2.13 -2.21,-2.40 -1.92,-2.67 -1.57,-2.86 -1.22,-3.05 -0.84,-3.15 -0.46,-3.26 -0.06,-3.26 0.33,-3.27 0.72,-3.18 1.10,-3.10 1.10,-3.10 L 1.10,-3.10 Z"></path></g><g transform="translate(552 106) rotate(0 51 3)" stroke="none"><path fill="#1e1e1e" d="M 0,-3.46 Q 0,-3.46 5.46,-3.34 10.92,-3.23 21.29,-3.15 31.66,-3.06 41.86,-2.72 52.06,-2.37 60.72,-1.91 69.37,-1.46 77.75,-0.38 86.12,0.69 90.82,1.45 95.52,2.20 98.99,2.60 102.46,3.00 102.93,3.16 103.39,3.31 103.78,3.60 104.18,3.90 104.45,4.30 104.73,4.70 104.87,5.17 105.00,5.64 104.98,6.13 104.96,6.62 104.78,7.08 104.60,7.54 104.29,7.91 103.97,8.29 103.55,8.54 103.14,8.80 102.66,8.91 102.18,9.02 101.69,8.97 101.21,8.92 100.76,8.72 100.32,8.51 99.96,8.18 99.60,7.84 99.37,7.41 99.13,6.98 99.05,6.50 98.97,6.02 99.04,5.53 99.12,5.05 99.35,4.62 99.57,4.18 99.92,3.84 100.28,3.50 100.72,3.29 101.16,3.08 101.65,3.03 102.14,2.97 102.62,3.07 103.09,3.17 103.52,3.42 103.94,3.67 104.26,4.04 104.58,4.42 104.76,4.87 104.95,5.32 104.98,5.81 105.01,6.30 104.88,6.77 104.75,7.25 104.48,7.65 104.21,8.06 103.82,8.36 103.43,8.66 102.97,8.82 102.51,8.98 102.02,8.98 101.53,8.99 101.53,8.99 101.53,8.99 98.10,8.31 94.68,7.64 90.05,6.94 85.43,6.24 77.26,5.24 69.10,4.25 60.50,3.88 51.90,3.52 41.78,3.29 31.66,3.06 21.29,3.15 10.92,3.23 5.46,3.34 0,3.46 -0.41,3.40 -0.82,3.35 -1.21,3.21 -1.60,3.06 -1.95,2.82 -2.29,2.58 -2.57,2.27 -2.84,1.96 -3.04,1.59 -3.23,1.22 -3.33,0.82 -3.43,0.41 -3.43,-0.00 -3.43,-0.41 -3.33,-0.82 -3.23,-1.22 -3.04,-1.59 -2.84,-1.96 -2.57,-2.27 -2.29,-2.59 -1.95,-2.82 -1.60,-3.06 -1.21,-3.21 -0.82,-3.35 -0.41,-3.40 0.00,-3.46 0.00,-3.46 L 0,-3.46 Z"></path></g><g transform="translate(621 65) rotate(0 42 4.5)" stroke="none"><path fill="#1e1e1e" d="M 0,-3.49 Q 0,-3.49 5.17,-3.38 10.35,-3.26 17.84,-2.59 25.33,-1.93 35.17,-0.46 45.01,1.00 55.74,2.50 66.48,4.00 71.60,4.65 76.72,5.30 80.53,5.68 84.35,6.07 84.80,6.20 85.26,6.34 85.65,6.61 86.04,6.88 86.33,7.26 86.61,7.65 86.76,8.10 86.91,8.55 86.90,9.03 86.90,9.50 86.74,9.95 86.58,10.40 86.29,10.78 86.00,11.16 85.60,11.42 85.20,11.68 84.74,11.80 84.28,11.93 83.80,11.89 83.33,11.86 82.89,11.68 82.45,11.50 82.09,11.19 81.73,10.88 81.49,10.46 81.25,10.05 81.15,9.59 81.05,9.12 81.11,8.65 81.17,8.17 81.37,7.74 81.58,7.31 81.91,6.97 82.24,6.63 82.66,6.41 83.09,6.19 83.56,6.12 84.03,6.05 84.50,6.13 84.97,6.22 85.39,6.44 85.80,6.67 86.13,7.02 86.45,7.37 86.65,7.81 86.84,8.24 86.89,8.71 86.93,9.19 86.83,9.65 86.72,10.12 86.47,10.52 86.22,10.93 85.85,11.23 85.48,11.54 85.04,11.71 84.59,11.88 84.12,11.90 83.64,11.92 83.64,11.92 83.64,11.92 79.85,11.39 76.05,10.86 70.88,10.28 65.71,9.69 54.94,8.28 44.17,6.87 34.51,5.55 24.85,4.23 17.60,3.74 10.34,3.26 5.17,3.38 0,3.49 -0.41,3.44 -0.83,3.39 -1.23,3.24 -1.62,3.09 -1.97,2.85 -2.32,2.61 -2.59,2.30 -2.87,1.98 -3.07,1.61 -3.27,1.24 -3.37,0.83 -3.47,0.42 -3.47,-0.00 -3.47,-0.42 -3.37,-0.83 -3.27,-1.24 -3.07,-1.61 -2.87,-1.98 -2.59,-2.30 -2.31,-2.61 -1.97,-2.85 -1.62,-3.09 -1.23,-3.24 -0.83,-3.39 -0.41,-3.44 0.00,-3.49 0.00,-3.49 L 0,-3.49 Z"></path></g><g transform="translate(10 316) rotate(0 50.83995819091797 12.5)"><text x="0" y="0" font-family="Virgil, Segoe UI Emoji" font-size="20px" fill="#1e1e1e" text-anchor="start" style="white-space: pre;" direction="ltr" dominant-baseline="text-before-edge">Catchment</text></g><g stroke-linecap="round"><g transform="translate(102 308) rotate(0 62.51739835888145 -50.16381843239071)"><path d="M-1.1 0.01 C4.28 -9.08, 11.76 -38.7, 32.97 -55.43 C54.17 -72.15, 110.92 -92.97, 126.14 -100.34 M0.52 -1.02 C6.21 -10.4, 14.23 -40.88, 35.14 -57.25 C56.04 -73.61, 111.13 -92.34, 125.97 -99.2" stroke="#1e1e1e" stroke-width="4" fill="none"></path></g></g><mask></mask><g stroke-linecap="round" transform="translate(208 379) rotate(0 8 8.5)"><path d="M7.45 -0.05 C9.09 -0.29, 11.31 0.48, 12.67 1.56 C14.04 2.64, 15.21 4.68, 15.64 6.44 C16.07 8.2, 15.98 10.51, 15.27 12.13 C14.56 13.75, 12.96 15.44, 11.38 16.19 C9.79 16.94, 7.41 17.09, 5.76 16.62 C4.11 16.14, 2.46 14.87, 1.48 13.34 C0.5 11.82, -0.26 9.32, -0.1 7.47 C0.06 5.62, 1.18 3.51, 2.45 2.25 C3.72 0.98, 6.67 0.2, 7.53 -0.14 C8.39 -0.47, 7.64 0.06, 7.62 0.23 M7.91 -0.04 C9.54 -0.11, 11.78 0.94, 13.14 2.1 C14.49 3.25, 15.73 5.15, 16.05 6.9 C16.36 8.65, 15.9 10.98, 15.03 12.6 C14.17 14.23, 12.5 15.99, 10.86 16.65 C9.23 17.31, 6.82 17.23, 5.22 16.56 C3.63 15.89, 2.14 14.22, 1.3 12.62 C0.46 11.02, -0.03 8.66, 0.17 6.95 C0.38 5.23, 1.28 3.48, 2.52 2.32 C3.76 1.16, 6.69 0.32, 7.62 -0.01 C8.55 -0.34, 8.01 0.2, 8.08 0.33" stroke="#1e1e1e" stroke-width="4" fill="none"></path></g><g stroke-linecap="round"><g transform="translate(227 390) rotate(0 95.41001448482274 28.272826417735814)"><path d="M-1.08 -0.05 C31.08 9.38, 159.75 48.25, 191.9 57.67 M0.56 -1.12 C32.73 8.48, 159.61 46.12, 191.42 55.9" stroke="#1e1e1e" stroke-width="4" fill="none"></path></g></g><mask></mask><g stroke-linecap="round" transform="translate(420 442) rotate(0 8 8.5)"><path d="M8.53 -0.11 C10.18 -0.08, 12.27 1.13, 13.49 2.42 C14.71 3.7, 15.68 5.79, 15.84 7.6 C16.01 9.42, 15.38 11.82, 14.46 13.31 C13.55 14.8, 11.97 16.04, 10.37 16.54 C8.77 17.04, 6.49 17.02, 4.87 16.31 C3.25 15.6, 1.44 13.9, 0.67 12.28 C-0.11 10.66, -0.21 8.36, 0.22 6.6 C0.65 4.84, 1.82 2.83, 3.25 1.72 C4.68 0.61, 7.88 0.18, 8.79 -0.05 C9.7 -0.29, 8.74 0.12, 8.7 0.3 M8.21 0.15 C9.83 0.15, 11.9 1.24, 13.18 2.4 C14.45 3.55, 15.58 5.29, 15.87 7.08 C16.15 8.88, 15.84 11.6, 14.91 13.15 C13.98 14.7, 11.95 15.8, 10.3 16.36 C8.65 16.92, 6.58 17.16, 4.99 16.51 C3.41 15.85, 1.61 14.04, 0.8 12.43 C-0.02 10.82, -0.25 8.59, 0.12 6.84 C0.49 5.08, 1.66 3.03, 3.04 1.91 C4.43 0.79, 7.61 0.37, 8.43 0.11 C9.26 -0.14, 8.05 0.31, 7.99 0.39" stroke="#1e1e1e" stroke-width="4" fill="none"></path></g><g stroke-linecap="round"><g transform="translate(440 451) rotate(0 123.9943353973963 -16.401865093272875)"><path d="M0.14 0.27 C41.5 -5.2, 206.79 -27.5, 248.11 -33.07 M-0.12 0.16 C41.21 -5.24, 206.61 -27.22, 247.95 -32.75" stroke="#1e1e1e" stroke-width="4" fill="none"></path></g></g><mask></mask><g stroke-linecap="round" transform="translate(690 407) rotate(0 9.5 10)"><path d="M9.44 0.08 C11.4 -0.12, 13.97 0.68, 15.5 2.02 C17.03 3.36, 18.23 6.03, 18.62 8.13 C19.02 10.23, 18.82 12.72, 17.87 14.59 C16.92 16.46, 14.84 18.52, 12.91 19.37 C10.99 20.22, 8.23 20.38, 6.32 19.68 C4.41 18.98, 2.45 17.01, 1.44 15.17 C0.44 13.34, -0.03 10.81, 0.3 8.68 C0.63 6.54, 1.91 3.8, 3.4 2.37 C4.89 0.95, 8.22 0.5, 9.25 0.13 C10.28 -0.24, 9.56 0.06, 9.57 0.18 M9.09 0.23 C11.03 -0.03, 13.72 0.98, 15.37 2.21 C17.03 3.43, 18.52 5.51, 18.99 7.59 C19.46 9.67, 19.09 12.71, 18.19 14.67 C17.29 16.63, 15.51 18.5, 13.6 19.33 C11.7 20.15, 8.72 20.3, 6.75 19.63 C4.77 18.96, 2.84 17.04, 1.75 15.29 C0.66 13.55, 0.03 11.21, 0.21 9.14 C0.39 7.08, 1.39 4.42, 2.83 2.88 C4.27 1.35, 7.8 0.38, 8.85 -0.06 C9.9 -0.5, 9.08 0.04, 9.13 0.25" stroke="#1e1e1e" stroke-width="4" fill="none"></path></g><g stroke-linecap="round"><g transform="translate(265 259) rotate(0 -22.838355860173692 60.780273555219196)"><path d="M-0.34 0.37 C-7.85 20.56, -37.85 101.12, -45.34 121.19" stroke="#1e1e1e" stroke-width="4.5" fill="none" stroke-dasharray="1.5 10"></path></g></g><mask></mask><g stroke-linecap="round"><g transform="translate(470 295) rotate(0 -20.165364717112652 72.901962477631)"><path d="M-0.21 0.03 C-6.92 24.36, -33.53 121.45, -40.12 145.77" stroke="#1e1e1e" stroke-width="4.5" fill="none" stroke-dasharray="1.5 10"></path></g></g><mask></mask><g transform="translate(191 415) rotate(0 23.139976501464844 12.5)"><text x="0" y="0" font-family="Virgil, Segoe UI Emoji" font-size="20px" fill="#1e1e1e" text-anchor="start" style="white-space: pre;" direction="ltr" dominant-baseline="text-before-edge">Node</text></g><g transform="translate(541.8600234985352 443.5) rotate(352.06343870336826 28.879981994628906 12.5)"><text x="0" y="0" font-family="Virgil, Segoe UI Emoji" font-size="20px" fill="#1e1e1e" text-anchor="start" style="white-space: pre;" direction="ltr" dominant-baseline="text-before-edge">Reach</text></g></svg>